<svg xmlns="http://www.w3.org/2000/svg" viewBox="0 0 983.47 511.08"><defs><style>.cls-1{fill:#27aae1;}.cls-2{font-size:200px;font-family:MyriadPro-Regular, Myriad Pro;}.cls-3{letter-spacing:0em;}.cls-4{letter-spacing:-0.02em;}.cls-5{fill:#e6e7e8;}.cls-6{fill:#f8f7ec;}.cls-7{fill:#45d7ff;}.cls-8{fill:#5cfffc;}.cls-9{fill:#c2fffc;}.cls-10{fill:none;stroke:#231f20;stroke-miterlimit:10;stroke-width:7px;}.cls-11{fill:#231f20;}.cls-12{fill:#fff;}</style></defs><g id="Corners"><path class="cls-1" d="M533.92,790.6c6.72-1.34,13.4-2.47,20.1-3.56,3.76-.74,11.59-2.14,15.51-2.83,154.52-27.1,308-88,416.73-204.49,8-8.28,16.17-17.78,23.63-26.53,3.89-4.57,7.52-9.29,11.44-13.85l4.32,2.51a294.76,294.76,0,0,1-15.83,33C918.89,734.61,712.49,819.34,533.92,790.6Z" transform="translate(-42.18 -285.06)"/><path class="cls-1" d="M533.92,290.6c-6.73,1.34-13.41,2.47-20.1,3.55-3.77.75-11.6,2.14-15.51,2.84-154.52,27.09-308,88-416.74,204.48-8,8.29-16.16,17.78-23.62,26.53-3.89,4.57-7.52,9.3-11.45,13.85l-4.32-2.51a293.09,293.09,0,0,1,15.84-33c90.92-159.75,297.33-244.49,475.9-215.74Z" transform="translate(-42.18 -285.06)"/></g><g id="text"><text class="cls-2" transform="translate(462.53 408.28)">N<tspan class="cls-3" x="131.6" y="0">e</tspan><tspan x="231.2" y="0">x</tspan></text><text class="cls-2" transform="translate(176.75 252.65)"><tspan class="cls-4">V</tspan><tspan x="108.4" y="0">isi</tspan></text><ellipse class="cls-5" cx="536.22" cy="191.05" rx="70.15" ry="68.97"/><ellipse class="cls-6" cx="536.22" cy="191.05" rx="70.15" ry="62.46"/><circle class="cls-7" cx="536.19" cy="190.69" r="43.21"/><circle class="cls-8" cx="536.19" cy="190.69" r="35.53"/><circle class="cls-9" cx="536.19" cy="190.69" r="25.16"/><path class="cls-7" d="M578.87,457.15l2.63-10.31a.51.51,0,0,1,1,.12l0,10.65a.51.51,0,0,0,1,.25l5.11-9.34a.51.51,0,0,1,.94.37l-2.66,10.31a.51.51,0,0,0,.87.48L595,451.9a.51.51,0,0,1,.82.6l-5.15,9.32a.52.52,0,0,0,.73.68l9-5.72a.51.51,0,0,1,.64.78l-7.3,7.75a.51.51,0,0,0,.53.84l10.12-3.31a.51.51,0,0,1,.43.91l-9,5.69a.52.52,0,0,0,.31.95l10.63-.69a.51.51,0,0,1,.19,1L596.77,474a.51.51,0,0,0,.07,1l10.46,2a.52.52,0,0,1-.07,1l-10.62.64a.52.52,0,0,0-.19,1l9.64,4.51a.51.51,0,0,1-.31,1l-10.46-2a.51.51,0,0,0-.42.9l8.22,6.77a.51.51,0,0,1-.55.86L592.92,487a.51.51,0,0,0-.63.76l6.27,8.61a.51.51,0,0,1-.74.69l-8.19-6.8a.51.51,0,0,0-.8.58l3.94,9.89a.51.51,0,0,1-.89.49l-6.25-8.62a.51.51,0,0,0-.92.36l1.36,10.56a.52.52,0,0,1-1,.26l-3.9-9.91a.51.51,0,0,0-1,.12l-1.32,10.57a.51.51,0,0,1-1,0L576.55,494a.51.51,0,0,0-1-.12l-3.9,9.91a.52.52,0,0,1-1-.26L572,493a.51.51,0,0,0-.92-.36l-6.25,8.62a.51.51,0,0,1-.89-.49l3.94-9.89a.51.51,0,0,0-.8-.58l-8.19,6.8a.51.51,0,0,1-.74-.69l6.27-8.61a.51.51,0,0,0-.63-.76l-9.63,4.55a.51.51,0,0,1-.54-.86l8.22-6.77a.51.51,0,0,0-.42-.9l-10.46,2a.51.51,0,0,1-.31-1l9.64-4.51a.52.52,0,0,0-.19-1L549.52,478a.52.52,0,0,1-.07-1l10.46-2a.51.51,0,0,0,.07-1l-10.14-3.27a.51.51,0,0,1,.19-1l10.63.69a.52.52,0,0,0,.31-.95l-9-5.69a.51.51,0,0,1,.44-.91l10.12,3.31a.51.51,0,0,0,.53-.84l-7.3-7.75a.51.51,0,0,1,.64-.78l9,5.72a.52.52,0,0,0,.73-.68L561,452.5a.51.51,0,0,1,.82-.6l7.27,7.78a.51.51,0,0,0,.87-.48l-2.66-10.31a.51.51,0,0,1,.94-.37l5.11,9.34a.51.51,0,0,0,1-.25l0-10.65a.51.51,0,0,1,1-.12l2.63,10.31A.51.51,0,0,0,578.87,457.15Z" transform="translate(-42.18 -285.06)"/><path class="cls-8" d="M581.2,459.3l2.72-6.72a.6.6,0,0,1,1.16.31l-1,7.18a.6.6,0,0,0,1.08.44l4.31-5.83a.61.61,0,0,1,1,.59L587.78,462a.61.61,0,0,0,.94.7l5.62-4.58a.61.61,0,0,1,.87.83l-4.33,5.81a.6.6,0,0,0,.74.91l6.59-3a.6.6,0,0,1,.63,1l-5.64,4.55a.61.61,0,0,0,.49,1.07l7.13-1.31a.61.61,0,0,1,.36,1.15l-6.6,3a.6.6,0,0,0,.21,1.15l7.24.51a.61.61,0,0,1,.06,1.2L595,476.25a.6.6,0,0,0-.08,1.17l6.88,2.29a.61.61,0,0,1-.24,1.18l-7.23-.54a.61.61,0,0,0-.38,1.11l6.1,3.93a.6.6,0,0,1-.52,1.08l-6.87-2.32a.61.61,0,0,0-.64,1l4.92,5.32a.6.6,0,0,1-.77.92l-6.08-4a.6.6,0,0,0-.86.79l3.44,6.39a.6.6,0,0,1-1,.69L586.74,490a.6.6,0,0,0-1,.55l1.75,7a.6.6,0,0,1-1.12.43l-3.42-6.39a.61.61,0,0,0-1.14.28l0,7.25a.6.6,0,0,1-1.19.14l-1.73-7.05a.61.61,0,0,0-1.17,0l-1.85,7a.6.6,0,0,1-1.19-.16l.08-7.25a.6.6,0,0,0-1.13-.3L570,497.82a.61.61,0,0,1-1.11-.46l1.88-7a.6.6,0,0,0-1-.57l-5,5.25a.6.6,0,0,1-1-.72l3.57-6.31a.61.61,0,0,0-.85-.81L560.36,491a.61.61,0,0,1-.76-.94l5-5.23a.6.6,0,0,0-.62-1l-6.92,2.19a.61.61,0,0,1-.5-1.09l6.17-3.82a.61.61,0,0,0-.35-1.12l-7.24.4a.61.61,0,0,1-.22-1.18l6.93-2.16a.6.6,0,0,0-.06-1.17l-7.12-1.41a.61.61,0,0,1,.09-1.2L562,473a.6.6,0,0,0,.23-1.15l-6.54-3.14a.6.6,0,0,1,.39-1.13l7.1,1.44a.61.61,0,0,0,.51-1.06l-5.55-4.66a.61.61,0,0,1,.65-1l6.53,3.16a.6.6,0,0,0,.75-.89l-4.21-5.9a.6.6,0,0,1,.88-.81l5.53,4.68a.61.61,0,0,0,1-.68L566.64,455a.61.61,0,0,1,1.06-.57l4.19,5.92A.6.6,0,0,0,573,460l-.85-7.21a.6.6,0,0,1,1.16-.28l2.6,6.77a.6.6,0,0,0,1.16-.13l1-7.19a.6.6,0,0,1,1.2,0l.83,7.2A.6.6,0,0,0,581.2,459.3Z" transform="translate(-42.18 -285.06)"/><circle class="cls-10" cx="536.19" cy="190.69" r="68.61"/><circle class="cls-10" cx="536.19" cy="190.69" r="43.21"/><circle class="cls-11" cx="536.19" cy="190.69" r="19.49"/><circle class="cls-12" cx="511.03" cy="157.58" r="11.96"/><circle class="cls-12" cx="549.24" cy="205.06" r="2.68"/><text class="cls-2" transform="translate(610.63 254.65)">n</text></g></svg>